<svg width="1625" height="602" viewBox="0 0 1625 602" fill="none" xmlns="http://www.w3.org/2000/svg">
<path d="M1030 111C1025 111 1020.27 110.133 1015.8 108.4C1011.4 106.667 1007.5 104.167 1004.1 100.9C1000.7 97.5667 997.998 93.5667 995.998 88.9C994.065 84.2333 993.098 78.9667 993.098 73.1C993.098 67.1667 994.065 61.8667 995.998 57.2C997.998 52.5333 1000.7 48.5667 1004.1 45.3C1007.57 42.0333 1011.5 39.5667 1015.9 37.9C1020.37 36.1667 1025.07 35.3 1030 35.3C1034.93 35.3 1039.6 36.1667 1044 37.9C1048.47 39.5667 1052.4 42.0333 1055.8 45.3C1059.27 48.5667 1061.97 52.5333 1063.9 57.2C1065.9 61.8667 1066.9 67.1667 1066.9 73.1C1066.9 78.9667 1065.9 84.2333 1063.9 88.9C1061.97 93.5667 1059.3 97.5667 1055.9 100.9C1052.5 104.167 1048.57 106.667 1044.1 108.4C1039.7 110.133 1035 111 1030 111ZM1030 100.9C1034.53 100.9 1038.7 99.8333 1042.5 97.7C1046.3 95.5667 1049.33 92.4667 1051.6 88.4C1053.87 84.2667 1055 79.2 1055 73.2C1055 67.1333 1053.87 62.0667 1051.6 58C1049.33 53.8667 1046.3 50.7667 1042.5 48.7C1038.77 46.5667 1034.6 45.5 1030 45.5C1025.4 45.5 1021.2 46.5667 1017.4 48.7C1013.67 50.7667 1010.67 53.8667 1008.4 58C1006.13 62.0667 1005 67.1333 1005 73.2C1005 79.2 1006.17 84.2667 1008.5 88.4C1010.83 92.4667 1013.9 95.5667 1017.7 97.7C1021.5 99.8333 1025.6 100.9 1030 100.9Z" fill="#202A36"/>
<path fill-rule="evenodd" clip-rule="evenodd" d="M373.216 530.1C358.216 530.1 344.016 527.5 330.616 522.3C317.416 517.1 305.716 509.6 295.516 499.8C285.316 489.8 277.216 477.8 271.216 463.8C265.416 449.8 262.516 434 262.516 416.4C262.516 398.6 265.416 382.7 271.216 368.7C277.216 354.7 285.316 342.8 295.516 333C305.916 323.2 317.716 315.8 330.916 310.8C344.316 305.6 358.416 303 373.216 303C388.016 303 402.016 305.6 415.216 310.8C428.616 315.8 440.416 323.2 450.616 333C461.016 342.8 469.116 354.7 474.916 368.7C480.916 382.7 483.916 398.6 483.916 416.4C483.916 434 480.916 449.8 474.916 463.8C469.116 477.8 461.116 489.8 450.916 499.8C440.716 509.6 428.916 517.1 415.516 522.3C402.316 527.5 388.216 530.1 373.216 530.1ZM373.216 499.8C386.816 499.8 399.316 496.6 410.716 490.2C422.116 483.8 431.216 474.5 438.016 462.3C444.816 449.9 448.216 434.7 448.216 416.7C448.216 398.5 444.816 383.3 438.016 371.1C431.216 358.7 422.116 349.4 410.716 343.2C399.516 336.8 387.016 333.6 373.216 333.6C359.416 333.6 346.816 336.8 335.416 343.2C324.216 349.4 315.216 358.7 308.416 371.1C301.616 383.3 298.216 398.5 298.216 416.7C298.216 434.7 301.716 449.9 308.716 462.3C315.716 474.5 324.916 483.8 336.316 490.2C347.716 496.6 360.016 499.8 373.216 499.8ZM161.7 527.1L32.7 384.3L33.6 408.3V527.1H0V306.3H4.19995L133.8 450.9L132.6 425.7V306.6H166.2V527.1H161.7ZM635.489 424.2L688.589 527.1H690.389L743.789 424.2L755.789 393L762.389 424.2L784.589 527.1H817.589L770.189 306.6H766.889L707.489 425.7L689.489 465.6L671.489 425.7L610.889 306.6H607.289L561.689 527.1H594.989L615.389 424.2L621.689 393L635.489 424.2ZM993.045 306.3H996.345L1102.54 527.1H1063.84L1044.94 483.9H1044.94L1031.68 453.6H1031.74L1008.04 400.5L995.145 370.2H994.545L981.345 400.2L958.693 450.6L958.687 450.6L958.136 451.84L957.345 453.6H957.352L943.867 483.9H943.845L942.562 486.83L941.997 488.1L942.007 488.1L924.945 527.1H887.445L993.045 306.3ZM1179.84 306.6V527.1H1234.74C1257.34 527.1 1276.14 523.8 1291.14 517.2C1306.34 510.6 1318.44 501.8 1327.44 490.8C1336.44 479.8 1342.84 467.6 1346.64 454.2C1350.64 440.6 1352.64 426.9 1352.64 413.1C1352.64 403.9 1351.64 394.4 1349.64 384.6C1347.64 374.6 1344.04 365 1338.84 355.8C1333.84 346.4 1326.84 338.1 1317.84 330.9C1308.84 323.5 1297.34 317.6 1283.34 313.2C1269.54 308.8 1252.74 306.6 1232.94 306.6H1179.84ZM1238.34 497.4H1213.44V336H1238.34C1257.94 336 1273.44 339.6 1284.84 346.8C1296.44 354 1304.74 363.6 1309.74 375.6C1314.74 387.4 1317.24 400.4 1317.24 414.6C1317.24 425 1315.84 435.2 1313.04 445.2C1310.44 455 1306.04 463.9 1299.84 471.9C1293.84 479.7 1285.74 485.9 1275.54 490.5C1265.54 495.1 1253.14 497.4 1238.34 497.4ZM1514.7 306.3H1518L1624.2 527.1H1585.5L1566.6 483.9H1566.46L1551.1 448L1550.91 448.003L1529.7 400.5L1516.8 370.2H1516.2L1503 400.2L1479 453.6H1479.05L1465.6 483.9H1465.5L1446.6 527.1H1409.1L1514.7 306.3Z" fill="#202A36"/>
<path fill-rule="evenodd" clip-rule="evenodd" d="M997.415 116.2H994.115L888.515 337H926.015L943.077 298L943.05 298L944.647 294.412L944.915 293.8H944.919L959.74 260.5L959.763 260.499L982.415 210.1L995.615 180.1H996.215L1009.11 210.4L1029.92 257.007L1030.05 257L1046 293.8H1046.01L1064.91 337H1103.61L997.415 116.2Z" fill="#202A36"/>
<path d="M868.622 561H1180L1123.73 600H808L868.622 561Z" fill="#FFCF1F"/>
<path d="M429.622 563H741L684.729 602H369L429.622 563Z" fill="#FFCF1F"/>
<path d="M1307.62 563H1619L1562.73 602H1247L1307.62 563Z" fill="#FFCF1F"/>
<ellipse cx="1030" cy="71" rx="32" ry="33" fill="#202A36"/>
<path d="M899.958 502.367C902.123 497.864 906.678 495 911.674 495H947C954.18 495 960 500.82 960 508V508C960 515.18 954.18 521 947 521H911.674C902.098 521 895.809 510.998 899.958 502.367V502.367Z" fill="#202A36"/>
<path d="M900.926 508H960V527H888L900.926 508Z" fill="#202A36"/>
<path d="M1069.63 503.863C1071.58 498.54 1076.64 495 1082.31 495H1104.5C1111.96 495 1118 501.044 1118 508.5V508.5C1118 515.956 1111.96 522 1104.5 522H1082.31C1072.93 522 1066.41 512.672 1069.63 503.863V503.863Z" fill="#202A36"/>
<path d="M1072.87 509H1118V527H1063L1072.87 509Z" fill="#202A36"/>
</svg>
